<svg xmlns="http://www.w3.org/2000/svg" viewBox="0 0 301.41 192.54"><defs><style>.cls-1,.cls-2,.cls-3{fill:none}.cls-2,.cls-4{opacity:.1}.cls-6{fill:#ffc905}.cls-7{fill:#315dae}.cls-3{opacity:.2}</style></defs><g id="Layer_2"><path d="m136.91 107.34.01-.36a2 2 0 0 0-.1.07l.08.3M287.47 0l-13.83 6.66-10.37 5-39.66 19.11-3 6.78-8.73 1.96 3.54-8.15-48.56-4.7c-11.59-14.34-31.02-22.73-53.29-22.73-20.94 0-43.62 7.23-65.58 20.92l-10.48 6.53-5.82 13.13-2.39 5.4 6.56 12.86 1.42 2.79A61 61 0 0 0 12.09 89.5C5.51 99.62.81 113.3.11 124.48c-.96 15.22 4.22 29.37 14.56 39.85 9.64 9.76 22.74 15.14 36.89 15.14 15.1 0 30.16-6.31 41.31-17.32l.26-.26.27.61 3.14 7.05 4.19 9.41 10.02-2.38 7.51-1.79 18.89-4.5 9.45-2.25 5.82-1.39 2.54-5.42 1.27-2.72a60.15 60.15 0 0 0 20.04 4.88l-3.69 10.08 12.17 4.01 9.13 3.01 17.52 5.77 8.37 2.76 10.67 3.52 4.55-10.27 4.27-9.65.12-.28.11-.28 3.18-8.16 33.08-84.8 9.19-.63 7.46-.51 3.03-6.84 4.27-9.65 1.7-3.85-.99-4.09-2.59-10.71-4.04-16.71-2.71-11.19L287.46 0Z" class="cls-1"/><path fill="#fff" d="m136.91 107.34.01-.36a2 2 0 0 0-.1.07l.08.3"/></g><g id="Layer_3"><path d="m238.49 42.53 37.37-18.01 6.7 27.66-41.12 2.81-2.95-12.46z" class="cls-6"/><path d="m272.7 31.21 4.04 16.71-31.68 2.16-1.18-4.99L272.7 31.2m6.33-13.37-10.37 5-28.82 13.89-6.74 3.25 1.72 7.28 1.18 4.99 1.82 7.67 7.87-.54 31.68-2.16 11-.75-2.59-10.71-4.04-16.71-2.71-11.19Z" class="cls-7"/><path d="m198.92 153.15 30.17-82.33-8.15-2.44 5.86-12.77 38.47 3.47-40.08 102.72-26.27-8.65z" class="cls-6"/><path d="m229.66 60.53 29.03 2.62-36.22 92.86-17.52-5.77 30.21-82.45-7.76-2.32 2.26-4.93m-5.71-9.85-2.74 5.97-2.26 4.93-4.46 9.72 8.54 2.56-26.81 73.17-3.31 9.02 9.13 3.01 17.52 5.77 8.37 2.76 3.2-8.21 36.22-92.86 4.5-11.53-12.33-1.11-29.03-2.62-6.55-.59Z" class="cls-7"/><path d="m273.27 48.16 3.47-.24-4.04-16.71-28.82 13.89.44 1.84 25.66-12.36 3.29 13.58zM258.68 63.15l-29.02-2.62-1.26 2.76 25.97 2.34-34.88 89.4 2.97.98 36.22-92.86z" class="cls-3"/><path d="m78.65 68.18-9.68 3.96-15.58-30.55 3.62-2.26c19.25-12 38.81-18.34 56.56-18.34 23.46 0 42.07 11.62 46.31 28.9 4.37 17.78-6.87 35.99-30.15 49.22l12.46 43.83-27.37 6.52-36.17-81.27Zm44.54 12.05c9.07-7.15 11.23-14.01 9.97-18.41-1.14-3.94-5.04-6.48-9.96-6.48-2.34 0-4.79.58-7.22 1.68l7.21 23.2Z" class="cls-6"/><path d="M113.58 25.63c45.21 0 62.7 43.98 10.68 71.17l12.15 42.73-18.89 4.5-36.44-81.87-9.9 4.05-11.7-22.94c20.15-12.56 38.72-17.64 54.1-17.64m7.07 62.05c27.2-17.1 18.42-36.99 2.56-36.99-3.97 0-8.38 1.25-12.79 4.1l10.23 32.9m-7.07-71.35c-18.62 0-39.03 6.59-59.02 19.05l-7.24 4.51 3.88 7.6 11.7 22.94 3.89 7.62 7.92-3.24 1.55-.63 32.77 73.63 3.14 7.05 7.51-1.79 18.89-4.5 9.45-2.25-2.65-9.34-10.15-35.7c33.85-20.66 31.01-45.16 29.21-52.52-4.77-19.41-25.19-32.45-50.83-32.45Zm8.23 43.75c.47-.06.94-.1 1.4-.1 2.79 0 4.94 1.22 5.49 3.12.58 2-.38 5.08-3.29 8.57l-3.6-11.59Z" class="cls-7"/><path d="M151.59 56.41c1.61 12.68-5.97 27.47-25.96 39.63 12.24-6.63 20.46-14.19 25.24-21.86 1.94-9.56 3.59-16.99 3.59-16.99l-2.86-.79ZM61.99 41.76c42.92-23.62 77.57-13.32 87.16 6.49l4.88-1.22c-9-21.29-46.23-32.58-92.04-5.27Z" class="cls-3"/><path d="m155.78 32.78-15.74-3.05-3.65 31.58 7.3 2.59-5.55 35.52 11.55-7.77s12.65-49.31 10.37-53.19c-1.81-3.08-4.29-5.69-4.29-5.69ZM214.18 98.01l22.47 26.96s-9.92 12.01-40.44 22.07a5488.68 5488.68 0 0 1 17.97-49.03Z" class="cls-4"/><path d="M184.92 136.85c-12.41 0-23.68-4.91-30.93-13.46-6.79-8.01-9.55-18.39-7.75-29.21a847.48 847.48 0 0 1 7.07-36.14l-4.48-1.23 2.85-14.48 38.78 3.75-2.55 5.86a258.72 258.72 0 0 0-4.69 11.49l26.37-5.92 1.22 28.24-33.45-4.24c-2.5 10.78-1.17 18.28 3.98 22.33 3.68 2.89 7.26 4.36 10.64 4.36 5.57 0 9.11-3.94 9.26-4.11l3.91-4.44 3.42 4.81 13.54 19.33-4.13 2.6c-10.87 6.84-22.29 10.46-33.03 10.46Z" class="cls-6"/><path d="m155.41 47.36 28.22 2.73a253.6 253.6 0 0 0-7.67 19.73l29.2-6.56.74 17.18-32.02-4.05c-4.69 15.99-2.3 25.71 4.56 31.11 5.09 4.01 9.67 5.36 13.51 5.36 7.93 0 12.78-5.73 12.78-5.73l10.74 15.33c-10.83 6.82-21.3 9.74-30.56 9.74-22.22 0-37.48-16.85-34.1-37.26 2.84-17.16 7.96-40.21 7.96-40.21l-4.56-1.25 1.2-6.11m-7.5-10.07-1.63 8.28-1.2 6.11-1.67 8.47 4.41 1.21a811 811 0 0 0-6.19 32.06c-2.02 12.2 1.1 23.91 8.8 32.98 8.14 9.6 20.7 15.1 34.48 15.1 11.62 0 23.9-3.86 35.51-11.17l8.27-5.2-5.6-8-10.74-15.33-7.23-10.32-7.43 9.57c-.42.42-2.64 2.51-5.74 2.51-2.31 0-4.93-1.13-7.77-3.37-3.03-2.39-4.07-6.92-3.12-13.51l23.66 2.99 10.94 1.38-.48-11.01-.74-17.18-.48-11.11-10.85 2.44-12.32 2.77 1.35-3.16 5.1-11.73-12.73-1.23-28.22-2.73-8.39-.81Z" class="cls-7"/><path d="m131.69 140.66 4.7-1.12-12.12-42.66c-1.39.81-2.83 1.61-4.34 2.4l11.76 41.38ZM110.42 54.79l.05.17c19.35-8.1 35.9 13.04 10.05 32.31l.13.41c34.01-21.38 11.76-47.13-10.23-32.9ZM174.13 109.97c11.45 9 20.24 4.59 24.11 1.61-4.65 1.91-11.53 2.42-19.8-4.08-6.41-5.05-9.2-13.76-4.56-31.11l-4.32 2.48c-4.69 15.99-2.3 25.71 4.56 31.11Z" class="cls-3"/><path d="M60.54 65.83c35.88-2.6 65.14 27.83 42.84 69.34l-8.86-18.32-27.74-38.79-6.23-12.23Z" class="cls-4"/><path d="M55.84 152.77c-9.55 0-18.35-3.58-24.76-10.07-6.89-6.97-10.33-16.5-9.68-26.8.64-10.11 5.15-19.78 12.71-27.25 7.98-7.89 18.67-12.41 29.33-12.41 9.55 0 18.34 3.57 24.75 10.07 14.08 14.26 12.72 38.5-3.02 54.05-7.98 7.88-18.67 12.41-29.33 12.41Zm-2.47-56.05c-3.56 4.65-3.48 11.08.43 15.04a10.62 10.62 0 0 0 7.64 3.11 12.51 12.51 0 0 0 10.17-5.3 14.6 14.6 0 0 1-4.46.72 13.78 13.78 0 0 1-13.77-13.57Z" class="cls-6"/><path d="M63.44 80.9c8 0 15.7 2.87 21.45 8.68 12.3 12.45 10.96 33.71-2.98 47.48-7.43 7.34-16.94 11.07-26.06 11.07-8 0-15.7-2.87-21.45-8.68-12.3-12.45-10.96-33.71 2.98-47.48 7.43-7.34 16.94-11.07 26.06-11.07m-2 38.63c4.28 0 8.66-1.69 12.05-5.03 5.82-5.75 6.72-14.44 2.61-20.67-.07-.11-.14-.16-.19-.16-.06 0-.08.07-.04.22a9.08 9.08 0 0 1-8.73 11.77 9.1 9.1 0 0 1-2.03-18c.27-.06.25-.47-.02-.5a17.02 17.02 0 0 0-13.78 4.89c-6.58 6.5-6.95 16.79-.83 22.99a15.25 15.25 0 0 0 10.95 4.5m2-47.93c-11.87 0-23.75 5.01-32.6 13.75-8.37 8.27-13.37 19.01-14.08 30.27-.73 11.65 3.18 22.43 11.01 30.36 7.29 7.38 17.26 11.45 28.07 11.45 11.87 0 23.75-5.01 32.6-13.75 17.57-17.35 18.94-44.55 3.06-60.63-7.29-7.38-17.26-11.45-28.07-11.45Z" class="cls-7"/><path d="m205.16 63.27-29.2 6.56a253.6 253.6 0 0 1 7.67-19.73l-28.2-2.73-.57 2.84 24.45 2.37a253.6 253.6 0 0 0-7.67 19.73l29.2-6.56.61 14.14 4.45.56-.74-17.18Z" class="cls-2"/><path d="M70.77 117.86c.99-.98 1.79-2.06 2.49-3.19-6.59 6.3-16.72 6.49-22.77.35-5.2-5.27-5.67-13.47-1.67-19.81l-.22.19c-6.58 6.5-6.95 16.79-.83 22.99 6.12 6.2 16.42 5.96 23-.54Z" class="cls-3"/><path d="M82.17 92.95c10.82 10.96 11.07 28.73 1.48 42.22 12.25-13.76 12.98-33.69 1.23-45.59-12.3-12.45-33.57-11.39-47.51 2.38a39.96 39.96 0 0 0-4.46 5.26c.57-.64 1.13-1.28 1.75-1.89C48.6 81.56 69.87 80.5 82.17 92.95Z" class="cls-3"/><path d="m215.48 122.46-10.74-15.33s-1.39 1.61-3.86 3.13l10.3 14.71s1.18-.64 2.35-1.33 1.94-1.18 1.94-1.18Z" class="cls-2"/><g class="cls-3"><path d="m110.47 54.95 10.05 32.31c25.86-19.27 9.31-40.41-10.05-32.31Z" class="cls-1"/><path d="M124.27 96.88c.47-.28.9-.56 1.35-.84-.47.25-.9.51-1.38.76l.02.08Z"/></g></g></svg>