<svg xmlns="http://www.w3.org/2000/svg" viewBox="0 0 327.41 233.64"><defs><style>.cls-2,.cls-3{fill:none}.cls-4{fill:#fff}.cls-6{fill:#ffc905}.cls-7{fill:red}.cls-8{fill:#1c2b5f}.cls-9{fill:#315dae}.cls-2{opacity:.1}.cls-3{opacity:.2}</style></defs><g id="Layer_2"><path d="m299.5 154.1-271-.03L0 194.92h327.41L299.5 154.1z" class="cls-7"/><path d="M134.79 13.91c17.69 0 32.47 7.29 39.6 18.85l20.84 2.02 10.84 1.05-4.34 9.99-1.15 2.69 10.49-2.36 9.24-2.07.41 9.46.29 6.63 3.54-7.71 1.93-4.2 2.33-5.09 4.47.4-.31-1.32 3.64-8.22 5.74-2.77 24.55-11.83 8.83-4.26 2.31 9.53 3.44 14.23 2.21 9.13-3.64 8.22-9.37.64-5.14.35-30.61 78.48-2.72 6.98-3.64 8.23-7.13-2.35-14.92-4.92-7.78-2.56 2.82-7.69 2.29-6.25c-4.01 1-8.01 1.53-11.91 1.53-11.73 0-22.44-4.69-29.37-12.86-.53-.62-1-1.28-1.48-1.93l.78 2.74 1.95 6.86.53 1.08-3.85 8.24-8.05 1.92-16.09 3.83-6.4 1.52-2.67-6.01-8.04-18.07a40.82 40.82 0 0 1-9.48 14.55c-7.54 7.44-17.66 11.71-27.77 11.71-9.21 0-17.7-3.46-23.91-9.75-6.67-6.76-10-15.94-9.38-25.86.47-7.55 3.81-17.57 8.68-24.93a41.85 41.85 0 0 1 6.95-9.07A40.74 40.74 0 0 1 84.7 61.74l-6.67-13.08-3.3-6.48 3.64-8.22 6.17-3.84c17.03-10.61 34.41-16.22 50.27-16.22m19.88 77.52v-.31a.55.55 0 0 0-.08.06l.07.25M282.92 0l-11.78 5.68-8.83 4.26-33.78 16.28-2.56 5.78-7.43 1.67 3.02-6.94-41.36-4c-9.88-12.22-26.42-19.37-45.4-19.37-17.84 0-37.15 6.16-55.86 17.82l-8.93 5.56-4.95 11.19-2.04 4.6 5.58 10.95 1.21 2.38a51.72 51.72 0 0 0-21.45 20.39c-5.62 8.62-9.62 20.27-10.22 29.8-.81 12.96 3.59 25.02 12.41 33.95 8.21 8.32 19.37 12.9 31.42 12.9 12.87 0 25.69-5.38 35.19-14.76l.22-.22.23.52 2.67 6.01 3.57 8.01 8.53-2.03 6.4-1.52 16.09-3.83 8.05-1.92 4.96-1.18 2.16-4.62 1.09-2.32a51.22 51.22 0 0 0 17.07 4.16l-3.15 8.58 10.37 3.42 7.78 2.56 14.92 4.92 7.13 2.35 9.09 3 3.88-8.75 3.64-8.22.11-.24.09-.24 2.71-6.95 28.18-72.24 7.83-.53 6.36-.43 2.58-5.83 3.64-8.22 1.45-3.28-.84-3.48-2.21-9.13-3.44-14.23-2.31-9.53L282.93.02Z" class="cls-7"/><path fill="#ffcb00" d="M134.79 13.91c17.69 0 32.47 7.29 39.6 18.85l20.84 2.02 10.84 1.05-4.34 9.99-1.15 2.69 10.49-2.36 9.24-2.07.41 9.46.29 6.63 3.54-7.71 1.93-4.2 2.33-5.09 4.47.4-.31-1.32 3.64-8.22 5.74-2.77 24.55-11.83 8.83-4.26 2.31 9.53 3.44 14.23 2.21 9.13-3.64 8.22-9.37.64-5.14.35-30.61 78.48-2.72 6.98-3.64 8.23-7.13-2.35-14.92-4.92-7.78-2.56 2.82-7.69 2.29-6.25c-4.01 1-8.01 1.53-11.91 1.53-11.73 0-22.44-4.69-29.37-12.86-.53-.62-1-1.28-1.48-1.93l.78 2.74 1.95 6.86.53 1.08-3.85 8.24-8.05 1.92-16.09 3.83-6.4 1.52-2.67-6.01-8.04-18.07a40.82 40.82 0 0 1-9.48 14.55c-7.54 7.44-17.66 11.71-27.77 11.71-9.21 0-17.7-3.46-23.91-9.75-6.67-6.76-10-15.94-9.38-25.86.47-7.55 3.81-17.57 8.68-24.93a41.85 41.85 0 0 1 6.95-9.07A40.74 40.74 0 0 1 84.7 61.74l-6.67-13.08-3.3-6.48 3.64-8.22 6.17-3.84c17.03-10.61 34.41-16.22 50.27-16.22m19.88 77.52v-.31a.55.55 0 0 0-.08.06l.07.25M134.8 11.26c-16.35 0-34.22 5.75-51.67 16.62l-6.17 3.85-.69.43-.33.74-3.64 8.22-.51 1.15.57 1.12 3.3 6.48 5.16 10.12a44.06 44.06 0 0 0-25.7 20.39c-4.91 7.45-8.55 17.95-9.07 26.15-.67 10.68 2.93 20.58 10.14 27.88 6.71 6.8 15.87 10.54 25.79 10.54 10.8 0 21.6-4.55 29.62-12.47a43.07 43.07 0 0 0 7.58-10.03l5.68 12.75 2.67 6.01.89 2 2.13-.51 6.4-1.52 16.09-3.83 8.05-1.92 1.24-.3.54-1.15 3.85-8.24.54-1.15-.56-1.14-.08-.17c6.97 5.21 15.83 8.09 25.31 8.09 2.54 0 5.15-.21 7.8-.64l-.66 1.8-2.82 7.69-.94 2.56 2.59.85 7.78 2.56 14.92 4.92 7.13 2.35 2.27.75.97-2.19 3.64-8.22.03-.06.03-.07 2.72-6.97 30.01-76.92 3.47-.24 9.37-.64 1.59-.11.65-1.46 3.64-8.22.36-.82-.21-.87-2.21-9.13-3.44-14.23-2.31-9.53-.77-3.18-2.94 1.42-8.83 4.26-24.55 11.83-5.74 2.76-.87.42-.39.89-3.42 7.73-1.73-.16-1.86-.17-.78 1.7-2.33 5.09-.9 1.96-.22-5.15-.14-3.15-3.08.69-9.24 2.07-5.44 1.22 3.44-7.92 1.45-3.33-3.61-.35-10.84-1.05-19.56-1.89c-7.99-11.92-23.25-18.99-41.13-18.99Z"/><path d="M134.79 13.91c17.69 0 32.47 7.29 39.6 18.85l20.84 2.02 10.84 1.05-4.34 9.99-1.15 2.69 10.49-2.36 9.24-2.07.41 9.46.29 6.63 3.54-7.71 1.93-4.2 2.33-5.09 4.47.4-.31-1.32 3.64-8.22 5.74-2.77 24.55-11.83 8.83-4.26 2.31 9.53 3.44 14.23 2.21 9.13-3.64 8.22-9.37.64-5.14.35-30.61 78.48-2.72 6.98-3.64 8.23-7.13-2.35-14.92-4.92-7.78-2.56 2.82-7.69 2.29-6.25c-4.01 1-8.01 1.53-11.91 1.53-11.73 0-22.44-4.69-29.37-12.86-.53-.62-1-1.28-1.48-1.93l.78 2.74 1.95 6.86.53 1.08-3.85 8.24-8.05 1.92-16.09 3.83-6.4 1.52-2.67-6.01-8.04-18.07a40.82 40.82 0 0 1-9.48 14.55c-7.54 7.44-17.66 11.71-27.77 11.71-9.21 0-17.7-3.46-23.91-9.75-6.67-6.76-10-15.94-9.38-25.86.47-7.55 3.81-17.57 8.68-24.93a41.85 41.85 0 0 1 6.95-9.07A40.74 40.74 0 0 1 84.7 61.74l-6.67-13.08-3.3-6.48 3.64-8.22 6.17-3.84c17.03-10.61 34.41-16.22 50.27-16.22m19.88 77.52v-.31a.55.55 0 0 0-.08.06l.07.25m120.19-78.01-8.83 4.26-24.55 11.83-5.74 2.76-.66.32-.29.67-3.61 8.16-2.2-.2-1.39-.13-.58 1.27-2.33 5.09-1.93 4.2-.12.25-.34-7.88-.1-2.37-2.31.52-9.24 2.07-6.71 1.51 3.96-9.11 1.09-2.5-2.71-.26-10.84-1.05-19.88-1.92c-7.82-11.89-22.96-18.96-40.75-18.96-16.23 0-33.98 5.71-51.32 16.52l-6.17 3.85-.52.32-.25.56-3.64 8.22-.38.86.43.84 3.3 6.48 5.52 10.83a43.35 43.35 0 0 0-26.1 20.32c-4.86 7.36-8.46 17.74-8.97 25.84-.66 10.49 2.87 20.21 9.95 27.38 6.59 6.67 15.58 10.34 25.32 10.34 10.63 0 21.25-4.48 29.16-12.28a42.48 42.48 0 0 0 8.09-11.07l6.23 13.99 2.67 6.01.67 1.5 1.6-.38 6.4-1.52 16.09-3.83 8.05-1.92.93-.22.41-.87 3.85-8.24.4-.86-.42-.85-.45-.92-.42-1.49c7.09 6.01 16.53 9.37 26.69 9.37 2.86 0 5.81-.28 8.81-.82l-1.05 2.87-2.82 7.69-.7 1.92 1.94.64 7.78 2.56 14.92 4.92 7.13 2.35 1.7.56.73-1.64 3.64-8.22 2.76-7.08 30.16-77.31 3.89-.27 9.37-.64 1.19-.08.48-1.09 3.64-8.22.27-.61-.16-.65-2.21-9.13-3.44-14.23-2.31-9.53" class="cls-4"/><path d="M104.01 233.64v-20.88h9.19v2.96h2.92v2.92h2.99v9.13h-2.99v2.96h-2.92v2.92h-9.19Zm3.28-3.25h5.59v-2.96h2.92v-8.48h-2.92v-2.92h-5.59v14.35ZM125.35 233.64v-2.92h-2.96v-15h2.96v-2.96h9.16v2.96h2.99v3.25h-3.31v-2.92h-8.51v5.55h5.91v3.21h-5.91v5.59h8.51v-2.96h3.31v3.28h-2.99v2.92h-9.16ZM143.73 233.64v-2.92h-2.96v-17.96h3.28v17.63h8.51v-2.96h3.31v3.28h-2.99v2.92h-9.16ZM159.16 233.64v-15h2.96v-2.92h2.92v-2.96h3.31v2.96h2.92v2.92h2.99v15h-3.31v-5.88h-8.51v5.88h-3.28Zm3.28-9.16h8.51v-5.52h-2.92v-2.92h-2.66v2.92h-2.92v5.52ZM180.49 233.64v-2.92h-2.96v-17.96h3.28v17.63h2.6v-5.91h2.99v-8.77h3.25v8.77h2.99v5.91h2.63v-17.63h3.25v17.96h-2.92v2.92h-3.28v-2.92h-2.99v-5.91h-2.6v5.91h-2.99v2.92h-3.25ZM201.15 233.64v-15h2.96v-2.92h2.92v-2.96h3.31v2.96h2.92v2.92h2.99v15h-3.31v-5.88h-8.51v5.88h-3.28Zm3.28-9.16h8.51v-5.52h-2.92v-2.92h-2.66v2.92h-2.92v5.52ZM219.53 233.64v-17.93h2.96v-2.96h9.16v2.96h2.99v9.09h-2.99v2.96h-1.43v2.63h2.92v3.25h-3.25v-2.92h-2.99v-2.96h-4.09v5.88h-3.28Zm3.28-9.16h8.51v-8.44h-8.51v8.44ZM240.87 233.64v-2.92h-2.96v-15h2.96v-2.96h9.16v2.96h2.99v3.25h-3.31v-2.92h-8.51v5.55h5.91v3.21h-5.91v5.59h8.51v-2.96h3.31v3.28h-2.99v2.92h-9.16Z" class="cls-8"/><path d="M67.43 228.7v-2.92h-2.96v-13h12.11v2.96h2.99v3.27h-2.99v2.6h2.99v4.18h-2.99v2.92h-9.16Zm.32-3.25h8.51v-3.53h-9.1v-3.22h9.1v-2.65h-8.51v9.4ZM87.16 227.76v-5.86h-2.92v-2.92h-2.96v-6.2h3.28v5.88h2.92v2.96h2.66v-2.96h2.92v-5.88h3.31v6.2h-2.99v2.92h-2.92v5.86h-3.31ZM64.47 230.39h31.91l.01 3.25H64.48l-.01-3.25z" class="cls-7"/><path d="m69.78 161.99-7.82 20.28a321.75 321.75 0 0 1 .14-20.28H54v9.37H41.32v-9.37h-6.64L28.42 187h12.9v-9.37H54V187h14.78l1.72-4.93h10.99c.73 1.97 1.32 3.62 1.76 4.93h8.92l-9.72-25.01H69.77Zm2.69 14.71c1.56-4.22 2.74-7.38 3.55-9.47l.83 2.24c.92 2.41 1.81 4.82 2.69 7.24h-7.06ZM105.23 168.15c1.49 0 2.96.31 4.39.93s2.49 1.57 3.15 2.86a57.43 57.43 0 0 1 7.27-3.2c-2.46-4.98-7.31-7.47-14.57-7.47-5.19 0-9.01 1.19-11.47 3.58-2.46 2.39-3.69 5.64-3.69 9.75s1.23 7.24 3.69 9.44c2.46 2.21 6.28 3.31 11.47 3.31 3.17 0 6.1-.55 8.78-1.65 2.69-1.1 4.6-3.04 5.75-5.82a93.33 93.33 0 0 1-7.23-3.41 5.6 5.6 0 0 1-2.48 3.01 9.33 9.33 0 0 1-4.55.95c-2.39 0-4.16-.58-5.32-1.74a6.08 6.08 0 0 1-1.74-4.49c0-1.7.54-3.13 1.62-4.29s2.72-1.74 4.93-1.74ZM155.94 161.99l-8.34 21.62a323.34 323.34 0 0 1-8.16-10.88l10.85-10.75h-11.16c-1.79 2.55-4.8 5.91-9.03 10.09v-10.09h-8.58c.18 4.45.28 8.62.28 12.5s-.09 8.05-.28 12.51h8.58v-4.96l4.03-4c2.5 4.02 4.29 7.01 5.37 8.96h15.43l1.72-4.93h10.99c.73 1.97 1.32 3.62 1.76 4.93h8.92l-9.72-25.01h-12.68Zm2.69 14.71c1.56-4.22 2.74-7.38 3.55-9.47l.83 2.24c.92 2.41 1.81 4.82 2.69 7.24h-7.06ZM222.46 161.99v9.37h-12.68v-9.37h-36.41v7.23c3.56-.11 7.05-.18 10.47-.2V187h8.61v-17.98c3.06.02 6.22.09 9.45.18a294.59 294.59 0 0 1-.22 17.8h8.09v-9.37h12.68V187h8.1c-.16-3.88-.24-8.05-.24-12.51s.08-8.62.24-12.5h-8.1ZM247.36 161.26c-5.28 0-9.16 1.15-11.63 3.45-2.47 2.3-3.7 5.49-3.7 9.58s1.24 7.34 3.72 9.63c2.48 2.28 6.35 3.43 11.61 3.43s9.22-1.14 11.68-3.41c2.46-2.27 3.69-5.49 3.69-9.64s-1.23-7.28-3.7-9.58-6.36-3.45-11.66-3.45Zm5.51 17.59c-1.13.98-2.96 1.46-5.51 1.46s-4.35-.49-5.48-1.48c-1.13-.99-1.69-2.5-1.69-4.55s.56-3.53 1.69-4.51c1.12-.99 2.95-1.48 5.48-1.48s4.39.49 5.51 1.48 1.69 2.49 1.69 4.51-.56 3.59-1.69 4.56ZM298.53 187l-5.42-24.98h-8.44l.59 19.33-8.37-19.33h-12.68c.18 4.46.28 8.61.28 12.47s-.09 8.05-.28 12.51h8.85l-.62-18.81 8.34 18.81h17.75Z" class="cls-4"/><path d="M0 194.18h327.41v10H0z" class="cls-9"/></g><g id="Layer_3"><path d="m241.2 36.23 31.83-15.34 5.71 23.56-35.02 2.39-2.52-10.61z" class="cls-6"/><path d="m270.34 26.58 3.44 14.23-26.99 1.84-1.01-4.25 24.55-11.83m5.39-11.39-8.83 4.26-24.55 11.83-5.74 2.77 1.47 6.2 1.01 4.25 1.55 6.54 6.7-.46 26.99-1.84 9.37-.64-2.21-9.13-3.44-14.23-2.31-9.53Z" class="cls-9"/><path d="m207.5 130.46 25.69-70.13-6.94-2.08 4.99-10.88 32.77 2.95-34.14 87.51-22.37-7.37z" class="cls-6"/><path d="m233.68 51.57 24.72 2.23-30.86 79.1-14.92-4.92 25.73-70.23-6.61-1.98 1.93-4.2m-4.87-8.39-2.33 5.09-1.93 4.2-3.8 8.28 7.27 2.18-22.84 62.33-2.82 7.69 7.78 2.56 14.92 4.92 7.13 2.35 2.73-7 30.86-79.1 3.83-9.82-10.5-.95-24.72-2.23-5.58-.5Z" class="cls-9"/><path d="m270.83 41.02 2.95-.2-3.44-14.24-24.55 11.83.37 1.58 21.87-10.54 2.8 11.57zM258.4 53.79l-24.72-2.22-1.08 2.34 22.12 1.99-29.7 76.16 2.53.83 30.85-79.1z" class="cls-3"/><path d="m105.05 58.08-8.25 3.37-13.27-26.03 3.08-1.92c16.4-10.22 33.06-15.62 48.18-15.62 19.98 0 35.83 9.89 39.45 24.62 3.72 15.15-5.85 30.66-25.68 41.92l10.61 37.34-23.32 5.55-30.81-69.23Zm37.94 10.26c7.73-6.09 9.57-11.93 8.49-15.68-.97-3.35-4.3-5.52-8.48-5.52-1.99 0-4.08.49-6.15 1.43L143 68.34Z" class="cls-6"/><path d="M134.79 21.84c38.51 0 53.41 37.46 9.09 60.62l10.35 36.4-16.09 3.83-31.04-69.74-8.43 3.45-9.96-19.54c17.16-10.7 32.99-15.02 46.08-15.02m6.02 52.86c23.17-14.57 15.69-31.51 2.18-31.51-3.38 0-7.14 1.06-10.89 3.49l8.71 28.02m-6.02-60.78c-15.86 0-33.24 5.61-50.27 16.22l-6.17 3.84 3.3 6.48L91.61 60l3.31 6.49 6.75-2.76 1.32-.54 27.91 62.72 2.67 6.01 6.4-1.52 16.09-3.83 8.05-1.92-2.26-7.96-8.64-30.41c28.84-17.6 26.42-38.47 24.88-44.73-4.06-16.53-21.46-27.64-43.3-27.64Zm7.01 37.27c.4-.05.8-.08 1.19-.08 2.37 0 4.21 1.04 4.67 2.66.49 1.71-.33 4.33-2.8 7.3l-3.07-9.87Z" class="cls-9"/><path d="M167.18 48.05c1.37 10.8-5.08 23.4-22.12 33.76 10.43-5.65 17.42-12.09 21.5-18.62 1.66-8.14 3.06-14.47 3.06-14.47l-2.44-.67ZM90.85 35.58c36.56-20.12 66.07-11.35 74.24 5.53l4.16-1.04c-7.66-18.14-39.38-27.75-78.4-4.49Z" class="cls-3"/><path d="m170.74 27.92-13.4-2.6-3.1 26.9 6.22 2.21-4.73 30.26 9.84-6.62s10.78-42 8.83-45.31c-1.54-2.62-3.65-4.85-3.65-4.85ZM220.49 83.49l19.14 22.97s-8.45 10.23-34.45 18.8a4657.5 4657.5 0 0 1 15.3-41.76Z" class="cls-2"/><path d="M195.56 116.57c-10.57 0-20.17-4.18-26.35-11.47-5.79-6.83-8.13-15.66-6.61-24.89a733.23 733.23 0 0 1 6.02-30.78l-3.82-1.05 2.43-12.34 33.03 3.2-2.17 5a228.19 228.19 0 0 0-4 9.79l22.46-5.04 1.04 24.05-28.49-3.61c-2.13 9.18-1 15.57 3.39 19.02 3.13 2.47 6.18 3.71 9.06 3.71 4.75 0 7.76-3.36 7.89-3.5l3.33-3.78 2.91 4.1 11.53 16.47-3.52 2.22c-9.26 5.83-18.99 8.91-28.14 8.91Z" class="cls-6"/><path d="m170.43 40.34 24.04 2.33a213.73 213.73 0 0 0-6.53 16.81l24.88-5.59.63 14.63-27.27-3.45c-3.99 13.62-1.96 21.9 3.88 26.5 4.34 3.41 8.23 4.56 11.51 4.56 6.75 0 10.89-4.88 10.89-4.88l9.14 13.06c-9.23 5.81-18.14 8.3-26.03 8.3-18.92 0-31.93-14.35-29.05-31.74 2.42-14.61 6.78-34.26 6.78-34.26l-3.89-1.07 1.02-5.2m-6.39-8.58-1.39 7.05-1.02 5.2-1.42 7.22 3.76 1.03a697.8 697.8 0 0 0-5.27 27.31c-1.72 10.39.94 20.37 7.49 28.1 6.93 8.17 17.64 12.86 29.37 12.86 9.9 0 20.36-3.29 30.25-9.52l7.04-4.43-4.77-6.82-9.14-13.06-6.16-8.79-6.33 8.16a7.33 7.33 0 0 1-4.89 2.14c-1.97 0-4.2-.96-6.61-2.87-2.58-2.03-3.47-5.89-2.66-11.51l20.16 2.55 9.32 1.18-.41-9.38-.63-14.63-.41-9.46-9.24 2.07-10.49 2.36 1.15-2.69 4.34-9.99-10.84-1.05-24.04-2.33-7.15-.69Z" class="cls-9"/><path d="m150.23 119.82 4.01-.95-10.33-36.34a84.25 84.25 0 0 1-3.7 2.04l10.02 35.25ZM132.1 46.67l.04.14c16.49-6.9 30.58 11.11 8.56 27.53l.11.35c28.97-18.21 10.02-40.14-8.71-28.02ZM186.38 93.68c9.75 7.67 17.24 3.91 20.54 1.37-3.96 1.62-9.82 2.06-16.86-3.48-5.46-4.3-7.84-11.72-3.88-26.5l-3.68 2.11c-3.99 13.62-1.96 21.9 3.88 26.5Z" class="cls-3"/><path d="M89.62 56.08c30.56-2.22 55.49 23.71 36.49 59.06l-7.55-15.6L94.93 66.5l-5.31-10.42Z" class="cls-2"/><path d="M85.61 130.14a29.32 29.32 0 0 1-21.09-8.58c-5.87-5.94-8.8-14.05-8.25-22.83a35.88 35.88 0 0 1 10.82-23.21C73.89 68.8 83 64.95 92.07 64.95c8.14 0 15.63 3.04 21.09 8.57 11.99 12.15 10.84 32.8-2.58 46.04-6.8 6.72-15.91 10.57-24.98 10.57Zm-2.1-47.74c-3.03 3.96-2.97 9.44.36 12.81a9.05 9.05 0 0 0 6.5 2.65 10.65 10.65 0 0 0 8.66-4.51 11.4 11.4 0 0 1-3.8.62A11.74 11.74 0 0 1 83.5 82.41Z" class="cls-6"/><path d="M92.08 68.91c6.81 0 13.38 2.44 18.27 7.4 10.47 10.61 9.34 28.71-2.54 40.44-6.33 6.25-14.43 9.43-22.2 9.43-6.81 0-13.38-2.44-18.27-7.4-10.47-10.61-9.34-28.71 2.54-40.44 6.33-6.25 14.43-9.43 22.2-9.43m-1.7 32.91c3.65 0 7.38-1.44 10.27-4.29 4.96-4.9 5.72-12.3 2.22-17.6-.06-.09-.12-.13-.16-.13-.05 0-.07.06-.03.18.47 1.53.5 3.26-.19 5.06A7.72 7.72 0 0 1 95.25 90a7.77 7.77 0 0 1-1.72-15.33c.23-.05.22-.4-.02-.42a14.55 14.55 0 0 0-11.74 4.17c-5.6 5.53-5.92 14.3-.7 19.58a13 13 0 0 0 9.32 3.83M92.09 61c-10.11 0-20.23 4.27-27.77 11.71a39.84 39.84 0 0 0-11.99 25.78c-.62 9.92 2.71 19.11 9.38 25.86 6.21 6.29 14.7 9.75 23.91 9.75 10.11 0 20.23-4.27 27.77-11.71 14.97-14.78 16.14-37.95 2.61-51.65-6.21-6.29-14.7-9.75-23.91-9.75Z" class="cls-9"/><path d="m212.81 53.89-24.88 5.59c1.89-5.6 4.16-11.34 6.53-16.81l-24.02-2.33-.48 2.42 20.83 2.02a213.73 213.73 0 0 0-6.53 16.81L209.14 56l.52 12.04 3.79.48-.63-14.63Z" class="cls-2"/><path d="M98.33 100.4c.84-.83 1.52-1.76 2.12-2.71-5.61 5.36-14.24 5.53-19.4.3-4.43-4.49-4.83-11.48-1.42-16.88l-.19.16c-5.6 5.53-5.92 14.3-.7 19.58 5.21 5.28 13.99 5.08 19.59-.46Z" class="cls-3"/><path d="M108.04 79.18c9.22 9.33 9.43 24.47 1.26 35.96 10.44-11.72 11.06-28.69 1.05-38.83-10.47-10.61-28.59-9.7-40.47 2.03a33.16 33.16 0 0 0-3.8 4.48c.48-.54.96-1.09 1.49-1.61 11.88-11.73 30-12.64 40.47-2.03Z" class="cls-3"/><path d="m221.6 104.31-9.14-13.06s-1.18 1.38-3.29 2.67l8.78 12.53s1-.55 2-1.13 1.65-1.01 1.65-1.01Z" class="cls-2"/><g class="cls-3"><path fill="none" d="m132.15 46.81 8.56 27.53c22.03-16.42 7.93-34.43-8.56-27.53Z"/><path d="M143.91 82.53c.4-.23.76-.48 1.15-.71-.4.21-.77.44-1.17.65l.02.06Z"/></g></g></svg>