<svg xmlns="http://www.w3.org/2000/svg" viewBox="0 0 301.41 192.54"><path fill="red" d="M113.58 16.33c20.77 0 38.12 8.56 46.49 22.13l24.46 2.37 12.73 1.23-5.1 11.73-1.35 3.16 12.32-2.77 10.85-2.44.48 11.11.34 7.78 4.15-9.05 2.26-4.93 2.74-5.97 5.25.47-.37-1.55 4.27-9.65 6.74-3.25 28.82-13.89 10.37-5L281.74 29l4.04 16.71 2.59 10.71-4.27 9.65-11 .75-6.04.41-35.94 92.13-3.2 8.2-4.27 9.66-8.37-2.76-17.52-5.77-9.13-3.01 3.31-9.02 2.69-7.34a57.6 57.6 0 0 1-13.98 1.8c-13.78 0-26.34-5.5-34.48-15.1-.62-.73-1.18-1.5-1.74-2.26l.91 3.21 2.29 8.05.62 1.26-4.53 9.67-9.45 2.25-18.89 4.5-7.51 1.79-3.14-7.05-9.44-21.22a47.78 47.78 0 0 1-11.13 17.08c-8.85 8.74-20.73 13.75-32.6 13.75-10.81 0-20.77-4.07-28.07-11.45-7.83-7.93-11.74-18.72-11.01-30.36.56-8.86 4.47-20.62 10.19-29.27a48.86 48.86 0 0 1 8.16-10.64 47.8 47.8 0 0 1 23.91-12.85l-7.83-15.35-3.88-7.6 4.27-9.65 7.24-4.51c19.99-12.46 40.4-19.05 59.02-19.05m23.34 91 .01-.36a2 2 0 0 0-.1.07l.08.3M287.47 0l-13.83 6.66-10.37 5-39.66 19.11-3 6.78-8.73 1.96 3.54-8.15-48.56-4.7c-11.59-14.34-31.02-22.73-53.29-22.73-20.94 0-43.62 7.23-65.58 20.92l-10.48 6.53-5.82 13.13-2.39 5.4 6.56 12.86 1.42 2.79A61 61 0 0 0 12.09 89.5C5.51 99.62.81 113.3.11 124.48c-.96 15.22 4.22 29.37 14.56 39.85 9.64 9.76 22.74 15.14 36.89 15.14 15.1 0 30.16-6.31 41.31-17.32l.26-.26.27.61 3.14 7.05 4.19 9.41 10.02-2.38 7.51-1.79 18.89-4.5 9.45-2.25 5.82-1.39 2.54-5.42 1.27-2.72a60.15 60.15 0 0 0 20.04 4.88l-3.69 10.08 12.17 4.01 9.13 3.01 17.52 5.77 8.37 2.76 10.67 3.52 4.55-10.27 4.27-9.65.12-.28.11-.28 3.18-8.16 33.08-84.8 9.19-.63 7.46-.51 3.03-6.84 4.27-9.65 1.7-3.85-.99-4.09-2.59-10.71-4.04-16.71-2.71-11.19L287.46 0Z"/><path fill="#ffcb00" d="M113.58 16.33c20.77 0 38.12 8.56 46.49 22.13l24.46 2.37 12.73 1.23-5.1 11.73-1.35 3.16 12.32-2.77 10.85-2.44.48 11.11.34 7.78 4.15-9.05 2.26-4.93 2.74-5.97 5.25.47-.37-1.55 4.27-9.65 6.74-3.25 28.82-13.89 10.37-5L281.74 29l4.04 16.71 2.59 10.71-4.27 9.65-11 .75-6.04.41-35.94 92.13-3.2 8.2-4.27 9.66-8.37-2.76-17.52-5.77-9.13-3.01 3.31-9.02 2.69-7.34a57.6 57.6 0 0 1-13.98 1.8c-13.78 0-26.34-5.5-34.48-15.1-.62-.73-1.18-1.5-1.74-2.26l.91 3.21 2.29 8.05.62 1.26-4.53 9.67-9.45 2.25-18.89 4.5-7.51 1.79-3.14-7.05-9.44-21.22a47.78 47.78 0 0 1-11.13 17.08c-8.85 8.74-20.73 13.75-32.6 13.75-10.81 0-20.77-4.07-28.07-11.45-7.83-7.93-11.74-18.72-11.01-30.36.56-8.86 4.47-20.62 10.19-29.27a48.86 48.86 0 0 1 8.16-10.64 47.8 47.8 0 0 1 23.91-12.85l-7.83-15.35-3.88-7.6 4.27-9.65 7.24-4.51c19.99-12.46 40.4-19.05 59.02-19.05m23.34 91 .01-.36a2 2 0 0 0-.1.07l.08.3m-23.31-94.1c-19.2 0-40.17 6.75-60.66 19.51l-7.24 4.51-.81.5-.39.87-4.27 9.65-.6 1.35.67 1.31 3.88 7.6 6.05 11.88a51.64 51.64 0 0 0-30.17 23.94C14.27 103.1 10 115.42 9.4 125.04c-.79 12.54 3.44 24.16 11.9 32.73 7.88 7.98 18.63 12.37 30.27 12.37 12.68 0 25.35-5.34 34.78-14.64a50.68 50.68 0 0 0 8.9-11.77l6.66 14.97 3.14 7.05 1.05 2.35 2.5-.6 7.51-1.79 18.89-4.5 9.45-2.25 1.46-.35.63-1.36 4.53-9.67.63-1.34-.65-1.33-.1-.2c8.18 6.11 18.59 9.5 29.71 9.5 2.98 0 6.05-.25 9.16-.75l-.78 2.12-3.31 9.02-1.1 3.01 3.04 1 9.13 3.01 17.52 5.77 8.37 2.76 2.67.88 1.14-2.57 4.27-9.65.03-.07.03-.09 3.19-8.18 35.22-90.3 4.07-.28 11-.75 1.87-.13.76-1.71 4.27-9.65.43-.96-.25-1.02-2.59-10.71-4.04-16.71-2.71-11.19-.9-3.73-3.46 1.67-10.37 5-28.82 13.89-6.74 3.25-1.03.49-.46 1.04-4.02 9.07-2.03-.18-2.18-.2-.91 1.99-2.74 5.97-1.06 2.3-.26-6.05-.16-3.7-3.62.81-10.85 2.44-6.39 1.43 4.04-9.3 1.7-3.91-4.24-.41-12.73-1.23-22.97-2.22c-9.38-13.99-27.29-22.29-48.28-22.29Z"/><path fill="#fff" d="M113.58 16.33c20.77 0 38.12 8.56 46.49 22.13l24.46 2.37 12.73 1.23-5.1 11.73-1.35 3.16 12.32-2.77 10.85-2.44.48 11.11.34 7.78 4.15-9.05 2.26-4.93 2.74-5.97 5.25.47-.37-1.55 4.27-9.65 6.74-3.25 28.82-13.89 10.37-5L281.74 29l4.04 16.71 2.59 10.71-4.27 9.65-11 .75-6.04.41-35.94 92.13-3.2 8.2-4.27 9.66-8.37-2.76-17.52-5.77-9.13-3.01 3.31-9.02 2.69-7.34a57.6 57.6 0 0 1-13.98 1.8c-13.78 0-26.34-5.5-34.48-15.1-.62-.73-1.18-1.5-1.74-2.26l.91 3.21 2.29 8.05.62 1.26-4.53 9.67-9.45 2.25-18.89 4.5-7.51 1.79-3.14-7.05-9.44-21.22a47.78 47.78 0 0 1-11.13 17.08c-8.85 8.74-20.73 13.75-32.6 13.75-10.81 0-20.77-4.07-28.07-11.45-7.83-7.93-11.74-18.72-11.01-30.36.56-8.86 4.47-20.62 10.19-29.27a48.86 48.86 0 0 1 8.16-10.64 47.8 47.8 0 0 1 23.91-12.85l-7.83-15.35-3.88-7.6 4.27-9.65 7.24-4.51c19.99-12.46 40.4-19.05 59.02-19.05m23.34 91 .01-.36a2 2 0 0 0-.1.07l.08.3m-23.31-93.32c-19.05 0-39.89 6.71-60.25 19.4l-7.24 4.51-.61.38-.29.65-4.27 9.65-.45 1.01.5.99 3.88 7.6 6.48 12.72a50.75 50.75 0 0 0-30.64 23.86c-5.7 8.65-9.93 20.83-10.53 30.34-.77 12.32 3.37 23.73 11.68 32.14 7.73 7.83 18.29 12.14 29.72 12.14 12.47 0 24.95-5.26 34.23-14.42a49.68 49.68 0 0 0 9.5-13l7.31 16.43 3.14 7.05.78 1.76 1.88-.45 7.51-1.79 18.89-4.5 9.45-2.25 1.09-.26.48-1.02 4.53-9.67.47-1.01-.49-1-.53-1.08-.5-1.75c8.33 7.06 19.41 11 31.33 11 3.36 0 6.83-.32 10.35-.96l-1.24 3.37-3.31 9.02-.83 2.26 2.28.75 9.13 3.01 17.52 5.77 8.37 2.76 2 .66.85-1.93 4.27-9.65 3.24-8.31 35.4-90.76 4.56-.31 11-.75 1.4-.1.57-1.28 4.27-9.65.32-.72-.19-.77L288 45.14l-4.04-16.71-2.71-11.19-.68-2.8-2.59 1.25-10.37 5-28.82 13.89-6.74 3.25-.77.37-.35.78-4.24 9.58-2.58-.23-1.64-.15-.69 1.49-2.74 5.97-2.26 4.93-.14.29-.4-9.26-.12-2.78-2.71.61-10.85 2.44-7.88 1.77 4.65-10.7 1.27-2.93-3.18-.31-12.73-1.23-23.33-2.26c-9.18-13.96-26.96-22.25-47.84-22.25Z"/><path fill="#1c2b5f" d="M113.58 16.33c20.77 0 38.12 8.56 46.49 22.13l24.46 2.37 12.73 1.23-5.1 11.73-1.35 3.16 12.32-2.77 10.85-2.44.48 11.11.34 7.78 4.15-9.05 2.26-4.93 2.74-5.97 5.25.47-.37-1.55 4.27-9.65 6.74-3.25 28.82-13.89 10.37-5L281.74 29l4.04 16.71 2.59 10.71-4.27 9.65-11 .75-6.04.41-35.94 92.13-3.2 8.2-4.27 9.66-8.37-2.76-17.52-5.77-9.13-3.01 3.31-9.02 2.69-7.34a57.6 57.6 0 0 1-13.98 1.8c-13.78 0-26.34-5.5-34.48-15.1-.62-.73-1.18-1.5-1.74-2.26l.91 3.21 2.29 8.05.62 1.26-4.53 9.67-9.45 2.25-18.89 4.5-7.51 1.79-3.14-7.05-9.44-21.22a47.78 47.78 0 0 1-11.13 17.08c-8.85 8.74-20.73 13.75-32.6 13.75-10.81 0-20.77-4.07-28.07-11.45-7.83-7.93-11.74-18.72-11.01-30.36.56-8.86 4.47-20.62 10.19-29.27a48.86 48.86 0 0 1 8.16-10.64 47.8 47.8 0 0 1 23.91-12.85l-7.83-15.35-3.88-7.6 4.27-9.65 7.24-4.51c19.99-12.46 40.4-19.05 59.02-19.05"/></svg>